PathFileType  4	(X/Y/Z) H:\Shared drives\HIT\Data\HapticPilot\Subject1\Edited\Files_W_HJCs
DataRate	CameraRate	NumFrames	NumMarkers	Units	OrigDataRate	OrigDataStartFrame	OrigNumFrames
   50.0		   50.0		    4		     56		 mm	   50.0	      86	    227
Frame#	Time	r_knee			r_shank_antsup			r_ankle			r_calc			r_5meta			r_toe			L_knee			L_shank_antsup			L_ankle			L_calc			L_5meta			L_toe			r_mknee			r_mankle			L_mknee			L_mankle			r_sh2			r_sh3			r_sh4			L_sh2			L_sh3			r_thigh1			r_thigh2			r_thigh3			r_thigh4			r_thigh5			L_thigh1			L_thigh2			L_thigh3			L_thigh4			r.ASIS			r.PSIS			L.ASIS			L.PSIS			C7			R_Shoulder			L_Shoulder			Sternum			R_HJC			L_HJC			R_HJC_reg			L_HJC_reg			midPSIS			midASIS			midHJC			midPelvis			R_KJC			L_KJC			R_AJC			L_AJC			R_AJC_proj			R_5meta_proj			R_toe_proj			L_AJC_proj			L_5meta_proj			L_toe_proj			
		X1	Y1	Z1	X2	Y2	Z2	X3	Y3	Z3	X4	Y4	Z4	X5	Y5	Z5	X6	Y6	Z6	X7	Y7	Z7	X8	Y8	Z8	X9	Y9	Z9	X10	Y10	Z10	X11	Y11	Z11	X12	Y12	Z12	X13	Y13	Z13	X14	Y14	Z14	X15	Y15	Z15	X16	Y16	Z16	X17	Y17	Z17	X18	Y18	Z18	X19	Y19	Z19	X20	Y20	Z20	X21	Y21	Z21	X22	Y22	Z22	X23	Y23	Z23	X24	Y24	Z24	X25	Y25	Z25	X26	Y26	Z26	X27	Y27	Z27	X28	Y28	Z28	X29	Y29	Z29	X30	Y30	Z30	X31	Y31	Z31	X32	Y32	Z32	X33	Y33	Z33	X34	Y34	Z34	X35	Y35	Z35	X36	Y36	Z36	X37	Y37	Z37	X38	Y38	Z38	X39	Y39	Z39	X40	Y40	Z40	X41	Y41	Z41	X42	Y42	Z42	X43	Y43	Z43	X44	Y44	Z44	X45	Y45	Z45	X46	Y46	Z46	X47	Y47	Z47	X48	Y48	Z48	X49	Y49	Z49	X50	Y50	Z50	X51	Y51	Z51	X52	Y52	Z52	X53	Y53	Z53	X54	Y54	Z54	X55	Y55	Z55	X56	Y56	Z56	

86	1.70000	773.291	578.811	-409.159	787.643	491.836	-404.386	735.020	114.205	-408.964	646.428	71.301	-451.985	847.117	39.389	-382.312	886.085	73.645	-445.080	767.470	573.379	-732.331	792.458	455.944	-733.634	705.260	113.388	-732.136	629.715	73.486	-681.336	821.005	42.571	-777.832	868.071	71.133	-721.387	770.922	557.963	-535.155	746.947	120.743	-505.188	785.600	562.700	-610.050	736.782	120.708	-642.271	784.318	371.622	-401.228	712.726	491.569	-392.309	702.333	375.704	-385.694	704.777	476.045	-752.213	692.534	354.029	-753.657	841.344	898.878	-392.784	840.308	783.911	-395.739	794.640	750.806	-383.430	728.168	892.983	-382.020	733.682	775.948	-393.805	854.837	840.069	-752.659	856.585	701.916	-743.668	739.541	838.458	-771.268	744.385	704.021	-752.100	864.540	1094.935	-446.833	675.384	1126.919	-539.508	873.281	1096.310	-705.032	683.479	1125.714	-622.123	725.295	1609.180	-587.775	768.058	1582.237	-422.622	790.753	1575.098	-764.185	864.831	1534.101	-580.620	795.677	1006.299	-459.054	802.738	1007.694	-695.309	790.288	1019.033	-489.510	806.914	1016.559	-659.191	679.431	1126.317	-580.816	868.911	1095.623	-575.932	799.208	1006.996	-577.181	774.171	1110.970	-578.374	772.107	568.387	-472.157	776.535	568.040	-671.190	740.984	117.474	-457.076	721.021	117.048	-687.204	740.984	0.000	-457.076	847.117	0.000	-382.312	886.085	0.000	-445.080	721.021	0.000	-687.204	821.005	0.000	-777.832	868.071	0.000	-721.387
87	1.72000	773.231	578.820	-409.152	787.626	491.836	-404.346	735.017	114.180	-408.941	646.409	71.338	-451.987	847.130	39.415	-382.243	886.067	73.670	-445.075	767.450	573.372	-732.320	792.396	455.912	-733.662	705.317	113.362	-732.121	629.717	73.477	-681.296	820.974	42.557	-777.852	868.058	71.114	-721.359	770.765	557.967	-535.165	746.938	120.707	-505.167	785.582	562.712	-610.039	736.841	120.743	-642.261	784.259	371.641	-401.250	712.647	491.558	-392.315	702.298	375.659	-385.704	704.758	476.045	-752.223	692.504	354.023	-753.661	841.348	898.909	-392.791	840.141	783.880	-395.722	794.624	750.797	-383.411	728.177	893.030	-382.059	733.663	776.019	-393.800	854.814	840.032	-752.651	856.598	701.909	-743.640	739.532	838.457	-771.282	744.284	703.994	-752.072	864.559	1094.859	-446.836	675.471	1126.935	-539.452	873.143	1096.164	-704.995	683.593	1125.685	-622.110	725.338	1609.181	-587.691	768.085	1582.201	-422.564	790.930	1575.095	-764.076	864.934	1534.178	-580.614	795.665	1006.261	-459.004	802.651	1007.580	-695.261	790.185	1019.028	-489.493	806.856	1016.462	-659.138	679.532	1126.310	-580.781	868.851	1095.511	-575.916	799.158	1006.921	-577.132	774.192	1110.911	-578.348	771.998	568.394	-472.158	776.516	568.042	-671.180	740.978	117.444	-457.054	721.079	117.053	-687.191	740.978	0.000	-457.054	847.130	0.000	-382.243	886.067	0.000	-445.075	721.079	0.000	-687.191	820.974	0.000	-777.852	868.058	0.000	-721.359
88	1.74000	773.163	578.823	-409.175	787.522	491.834	-404.399	734.996	114.212	-408.952	646.416	71.292	-452.022	847.119	39.388	-382.286	886.052	73.640	-445.079	767.447	573.356	-732.323	792.431	455.937	-733.678	705.275	113.383	-732.134	629.681	73.481	-681.293	820.998	42.570	-777.857	868.074	71.118	-721.393	770.751	557.959	-535.198	746.961	120.751	-505.187	785.573	562.706	-610.062	736.799	120.677	-642.303	784.218	371.682	-401.212	712.623	491.585	-392.364	702.213	375.680	-385.717	704.710	476.025	-752.215	692.599	354.043	-753.665	841.393	898.943	-392.792	840.064	783.903	-395.696	794.566	750.848	-383.432	728.121	893.121	-382.018	733.672	776.040	-393.854	854.875	840.021	-752.650	856.616	701.874	-743.677	739.567	838.470	-771.301	744.414	704.067	-752.091	864.609	1094.855	-446.799	675.500	1126.980	-539.525	873.389	1096.267	-704.996	683.711	1125.849	-622.182	725.343	1609.135	-587.691	768.082	1582.215	-422.603	791.001	1575.112	-764.060	865.070	1534.247	-580.564	795.675	1006.271	-459.072	802.819	1007.714	-695.324	790.258	1018.907	-489.650	807.110	1016.586	-659.310	679.606	1126.415	-580.853	868.999	1095.561	-575.897	799.247	1006.992	-577.198	774.302	1110.988	-578.375	771.957	568.391	-472.187	776.510	568.031	-671.193	740.978	117.481	-457.069	721.037	117.030	-687.219	740.978	0.000	-457.069	847.119	0.000	-382.286	886.052	0.000	-445.079	721.037	0.000	-687.219	820.998	0.000	-777.857	868.074	0.000	-721.393
89	1.76000	773.093	578.831	-409.177	787.501	491.845	-404.357	734.988	114.185	-408.962	646.427	71.179	-452.082	847.117	39.397	-382.280	886.068	73.641	-445.098	767.490	573.338	-732.345	792.439	455.919	-733.663	705.309	113.335	-732.152	629.724	73.424	-681.316	820.998	42.499	-777.857	868.079	71.038	-721.406	770.771	557.972	-535.167	746.952	120.742	-505.213	785.549	562.747	-610.069	736.793	120.723	-642.320	784.229	371.684	-401.251	712.548	491.579	-392.373	702.215	375.670	-385.736	704.714	476.056	-752.224	692.509	354.093	-753.672	841.317	898.910	-392.802	840.155	783.966	-395.700	794.526	750.869	-383.467	728.167	893.106	-382.158	733.623	776.046	-394.054	854.908	840.014	-752.652	856.640	701.884	-743.672	739.612	838.478	-771.313	744.498	704.026	-752.173	864.670	1094.831	-446.844	675.582	1126.953	-539.584	873.233	1096.132	-704.929	683.811	1125.828	-622.228	725.410	1609.175	-587.737	768.123	1582.190	-422.619	791.079	1575.095	-764.022	865.180	1534.310	-580.502	795.682	1006.263	-459.052	802.773	1007.599	-695.306	790.234	1018.847	-489.700	807.120	1016.540	-659.279	679.697	1126.390	-580.906	868.952	1095.482	-575.886	799.228	1006.931	-577.179	774.324	1110.936	-578.396	771.932	568.401	-472.172	776.519	568.043	-671.207	740.970	117.463	-457.087	721.051	117.029	-687.236	740.970	0.000	-457.087	847.117	0.000	-382.280	886.068	0.000	-445.098	721.051	0.000	-687.236	820.998	0.000	-777.857	868.079	0.000	-721.406
